<svg width="63" height="40" viewBox="0 0 63 40" fill="none" xmlns="http://www.w3.org/2000/svg">
<g clip-path="url(#clip0)">
<path d="M3.22344 0.000976562H59.6337C61.414 0.000976562 62.8571 1.4337 62.8571 3.20098V36.801C62.8571 38.5684 61.414 40.001 59.6337 40.001H3.22344C1.44322 40.001 0 38.5684 0 36.801V3.20098C0 1.4337 1.44322 0.000976562 3.22344 0.000976562Z" fill="#2557D6"/>
<path d="M0.0199342 18.8552H3.03716L3.71747 17.2944H5.24054L5.91908 18.8552H11.8557V17.662L12.3856 18.8604H15.4675L15.9974 17.6442V18.8552H30.7511L30.7443 16.2932H31.0297C31.2295 16.2998 31.2879 16.3173 31.2879 16.6312V18.8552H38.9185V18.2588C39.5341 18.5724 40.4914 18.8552 41.7509 18.8552H44.9612L45.6482 17.2944H47.1712L47.8431 18.8552H54.0293V17.3727L54.9662 18.8552H59.9234V9.05444H55.0174V10.2119L54.3306 9.05444H49.2963V10.2119L48.6655 9.05444H41.8656C40.7275 9.05444 39.727 9.20556 38.9187 9.62668V9.05444H34.2262V9.62668C33.7118 9.1926 33.0111 9.05444 32.2317 9.05444H15.0878L13.9376 11.5857L12.7562 9.05444H7.35657V10.2119L6.7633 9.05444H2.15821L0.0195312 13.7141V18.855H0.019773L0.0199342 18.8552ZM19.0656 17.4416H17.2554L17.2487 11.938L14.6881 17.4415H13.1376L10.5703 11.9332V17.4415H6.97854L6.30001 15.8741H2.62311L1.93772 17.4415H0.0196924L3.18197 10.4145H5.80577L8.80914 17.0676V10.4145H11.6914L14.0024 15.1815L16.1254 10.4145H19.0656L19.0656 17.4416ZM5.69642 14.4157L4.48779 11.6144L3.28585 14.4157H5.69642ZM26.27 17.4414H20.3709V10.4144H26.27V11.8777H22.1369V13.1444H26.171V14.5848H22.1368V15.9881H26.27L26.27 17.4414ZM34.5833 12.307C34.5833 13.4273 33.7972 14.0062 33.3391 14.18C33.7255 14.3198 34.0556 14.567 34.2127 14.7717C34.462 15.1212 34.5051 15.4334 34.5051 16.061V17.4414H32.7238L32.7171 16.5552C32.7171 16.1324 32.7596 15.5244 32.4384 15.1863C32.1804 14.9391 31.787 14.8855 31.1512 14.8855H29.2556V17.4415H27.4896V10.4144H31.5513C32.4537 10.4144 33.1187 10.4371 33.6896 10.751C34.2483 11.0649 34.5833 11.5232 34.5833 12.307ZM32.3512 13.3504C32.1083 13.4905 31.8215 13.4952 31.4775 13.4952H29.3323V11.9344H31.5067C31.8144 11.9344 32.1356 11.9475 32.3442 12.0611C32.5732 12.1635 32.715 12.3813 32.715 12.6823C32.715 12.9895 32.5801 13.2366 32.3512 13.3504ZM37.4155 17.4414H35.6138V10.4144H37.4155V17.4414ZM58.3324 17.4414H55.83L52.4828 12.1672V17.4414H48.8864L48.1993 15.874H44.5309L43.8644 17.4414H41.7975C40.9394 17.4414 39.8523 17.2608 39.2371 16.6642C38.6165 16.0676 38.2936 15.2594 38.2936 13.9816C38.2936 12.9394 38.4866 11.9867 39.2454 11.2338C39.8164 10.673 40.7105 10.4144 41.9274 10.4144H43.637V11.9201H41.9631C41.3187 11.9201 40.9547 12.0113 40.6043 12.3364C40.3033 12.6323 40.0968 13.1916 40.0968 13.9281C40.0968 14.6809 40.254 15.2238 40.5821 15.5784C40.8539 15.8564 41.3482 15.9408 41.8128 15.9408H42.606L45.0948 10.4147H47.7408L50.7307 17.0612V10.4148H53.4196L56.5237 15.3087V10.4148H58.3324V17.4414ZM47.5984 14.4158L46.3763 11.6144L45.1609 14.4158H47.5984ZM62.8323 28.6622C62.4035 29.2588 61.5676 29.5612 60.436 29.5612H57.0257V28.054H60.4222C60.7591 28.054 60.9948 28.0119 61.1368 27.88C61.271 27.7621 61.3467 27.5957 61.3456 27.4217C61.3456 27.2168 61.2599 27.0543 61.1299 26.9568C61.0018 26.8495 60.8153 26.8008 60.5076 26.8008C58.8496 26.7472 56.781 26.8495 56.781 24.6253C56.781 23.606 57.4614 22.5328 59.3145 22.5328H62.832V21.1345H59.5637C58.5776 21.1345 57.861 21.3593 57.3536 21.7084V21.1344H52.5197C51.7464 21.1344 50.8391 21.3168 50.41 21.7084V21.1344H41.7776V21.7084C41.0907 21.2371 39.9316 21.1344 39.3964 21.1344H33.7025V21.7084C33.1589 21.2078 31.9504 21.1344 31.2135 21.1344H24.841L23.3829 22.6356L22.017 21.1344H12.4974V30.9416H21.8373L23.3399 29.4167L24.7554 30.9416L30.5127 30.9465V28.6395H31.0785C31.8423 28.6507 32.7434 28.6212 33.5382 28.2945V30.9413H38.287V28.3852H38.516C38.8083 28.3852 38.8371 28.3967 38.8371 28.6744V30.941H53.2628C54.1786 30.941 55.136 30.7181 55.6662 30.3134V30.941H60.2419C61.194 30.941 62.1239 30.814 62.8315 30.4891L62.8316 28.6619L62.8323 28.6622ZM34.2291 24.8898C34.2291 26.8423 32.6976 27.2454 31.154 27.2454H28.9506V29.6029H25.5183L23.3438 27.276L21.084 29.6029H14.089V22.5742H21.1914L23.3641 24.8781L25.6104 22.5742H31.2532C32.6545 22.5742 34.2291 22.9432 34.2291 24.8898ZM20.1894 28.1245H15.8476V26.7261H19.7246V25.292H15.8476V24.0141H20.2749L22.2065 26.0624L20.1894 28.1245ZM27.1851 28.9293L24.4739 26.0662L27.1851 23.2942V28.9293ZM31.1948 25.804H28.9128V24.0141H31.2153C31.8529 24.0141 32.2955 24.2613 32.2955 24.8759C32.2955 25.4838 31.8734 25.804 31.1948 25.804ZM43.1506 22.5742H49.0445V24.0278H44.9092V25.3056H48.9435V26.7397H44.9092V28.1381L49.0444 28.1445V29.6029H43.1504L43.1506 22.5742ZM40.8846 26.3365C41.2777 26.4745 41.599 26.7218 41.7496 26.9265C41.999 27.2698 42.035 27.59 42.0422 28.2095V29.6029H40.2691V28.7236C40.2691 28.3007 40.3119 27.6746 39.9837 27.3477C39.7257 27.096 39.3323 27.0358 38.6882 27.0358H36.8009V29.603H35.0264V22.5743H39.1035C39.9975 22.5743 40.6486 22.6119 41.2283 22.906C41.7855 23.2263 42.1362 23.6649 42.1362 24.4668C42.1361 25.5886 41.3493 26.1611 40.8846 26.3365ZM39.8865 25.448C39.6502 25.5813 39.3582 25.5928 39.0147 25.5928H36.8694V24.0143H39.0437C39.3582 24.0143 39.6729 24.0207 39.8865 24.1412C40.1154 24.2551 40.2522 24.4729 40.2522 24.7735C40.2522 25.0741 40.1153 25.3164 39.8865 25.448ZM55.828 25.8957C56.1722 26.234 56.3562 26.6614 56.3562 27.3848C56.3562 28.8968 55.3632 29.6026 53.582 29.6026H50.1426V28.0954H53.5683C53.9033 28.0954 54.1408 28.0534 54.2896 27.9214C54.4111 27.8128 54.4982 27.6548 54.4982 27.4631C54.4982 27.2582 54.4039 27.0957 54.2826 26.9982C54.1477 26.891 53.9614 26.8423 53.6538 26.8423C52.0024 26.7887 49.9342 26.891 49.9342 24.6669C49.9342 23.6474 50.6075 22.5743 52.459 22.5743H55.9993V24.0703H52.7599C52.4388 24.0703 52.23 24.0819 52.0524 24.1972C51.859 24.311 51.7873 24.48 51.7873 24.7028C51.7873 24.9679 51.9515 25.1484 52.1737 25.2264C52.3599 25.288 52.5601 25.306 52.8608 25.306L53.8115 25.3305C54.77 25.3526 55.4281 25.5104 55.828 25.8957ZM62.8354 24.0141H59.617C59.2957 24.0141 59.082 24.0256 58.9024 24.1411C58.7161 24.2549 58.6444 24.4238 58.6444 24.6468C58.6444 24.912 58.8016 25.0923 59.0305 25.1704C59.2168 25.232 59.4169 25.25 59.7109 25.25L60.6681 25.2744C61.6338 25.2971 62.2784 25.455 62.6715 25.8401C62.7433 25.8937 62.7861 25.9539 62.8353 26.0141V24.0141H62.8354Z" fill="white"/>
</g>
<defs>
<clipPath id="clip0">
<rect width="62.8571" height="40" fill="white"/>
</clipPath>
</defs>
</svg>
