<?xml version="1.0" encoding="utf-8"?>
<!-- Generator: Adobe Illustrator 25.0.0, SVG Export Plug-In . SVG Version: 6.00 Build 0)  -->
<svg version="1.1" id="Layer_1" xmlns="http://www.w3.org/2000/svg" xmlns:xlink="http://www.w3.org/1999/xlink" x="0px" y="0px"
	 viewBox="0 0 26.9 30.8" style="enable-background:new 0 0 26.9 30.8;" xml:space="preserve">
<style type="text/css">
	.st0{fill:#FFFFFF;}
</style>
<path class="st0" d="M25.2,5.6h-0.8c-1.3,0-2.5,0.1-3.8,0.4c-1-4.1-5.1-6.5-9.2-5.5C8.9,1.1,6.8,3.2,6,5.8C5,5.6,4,5.6,3,5.6
	c-0.5,0-1,0-1.5,0.1L0.2,5.8v14.8c0,5.6,4.5,10.2,10.1,10.2h6.2c5.6,0,10.2-4.6,10.2-10.2V5.7L25.2,5.6z M13.4,3.2
	c2.2,0,4.1,1.5,4.5,3.7c-1.5,0.6-2.9,1.5-4.1,2.6C12.5,8.3,11,7.4,9.3,6.7C9.1,6.6,9,6.6,8.9,6.6C9.5,4.6,11.3,3.2,13.4,3.2z"/>
</svg>
