<svg width="63" height="40" viewBox="0 0 63 40" fill="none" xmlns="http://www.w3.org/2000/svg">
<g clip-path="url(#clip0)">
<path d="M3.21678 0H59.5105C61.2871 0 62.7273 1.43272 62.7273 3.2V36.8C62.7273 38.5674 61.2871 40 59.5105 40H3.21678C1.44023 40 0 38.5674 0 36.8V3.2C0 1.43272 1.44023 0 3.21678 0Z" fill="#16366F"/>
<path d="M36.1087 20C36.1087 27.9315 29.6454 34.36 21.6726 34.36C13.6998 34.36 7.2373 27.9311 7.2373 20C7.2373 12.0694 13.7 5.64001 21.6726 5.64001C29.6452 5.64001 36.1087 12.0696 36.1087 20Z" fill="#D9222A"/>
<path d="M41.0534 5.63965C37.3235 5.63965 33.9247 7.04733 31.3628 9.35693C30.8409 9.82805 30.3537 10.3359 29.9052 10.8766H32.8217C33.2211 11.3596 33.5886 11.8676 33.9222 12.3976H28.8047C28.497 12.8873 28.2193 13.3952 27.9731 13.9183H34.7535C34.9861 14.4131 35.1902 14.9207 35.3646 15.4386H27.3619C27.1938 15.9374 27.0538 16.4451 26.9424 16.9593H35.7837C36 17.9585 36.1089 18.9778 36.1087 20C36.1087 21.5947 35.847 23.129 35.3645 24.5616H27.3618C27.5358 25.0799 27.7397 25.5876 27.9726 26.0824H34.7533C34.5069 26.6056 34.229 27.1135 33.9212 27.6034H28.8045C29.1386 28.1337 29.5066 28.6417 29.905 29.1231H32.8209C32.373 29.6649 31.8856 30.1732 31.3629 30.6441C33.9251 32.9534 37.3234 34.3604 41.0534 34.3604C49.0261 34.3603 55.4896 27.9314 55.4896 20.0004C55.4896 12.07 49.0262 5.64037 41.0534 5.64037" fill="#EE9F2D"/>
<path d="M53.5657 28.0049C53.5657 27.7488 53.7741 27.5408 54.0318 27.5408C54.2895 27.5408 54.4979 27.7488 54.4979 28.0049C54.4979 28.2608 54.2895 28.4688 54.0318 28.4688C53.7743 28.4688 53.5656 28.261 53.5657 28.0049ZM54.0318 28.3575C54.2276 28.3575 54.3862 28.1995 54.3863 28.0049C54.3863 27.8103 54.2277 27.6526 54.0321 27.6526H54.0318C53.8364 27.6523 53.6779 27.8096 53.6776 28.004V28.005C53.6774 28.1995 53.8358 28.3575 54.0314 28.3576C54.0315 28.3575 54.0316 28.3575 54.0318 28.3575ZM53.9688 28.2087H53.8733V27.8012H54.0461C54.0823 27.8012 54.1191 27.8012 54.1511 27.8215C54.1843 27.8438 54.203 27.8831 54.203 27.9238C54.203 27.9694 54.1759 28.0121 54.132 28.0287L54.2073 28.2087H54.1016L54.0389 28.0475H53.9689V28.2087H53.9688ZM53.9688 27.9775H54.0217C54.0415 27.9775 54.0623 27.9791 54.08 27.9696C54.0958 27.9595 54.1038 27.9408 54.1038 27.9228C54.1038 27.9072 54.0942 27.8892 54.0807 27.8815C54.064 27.8711 54.0376 27.8735 54.0197 27.8735H53.9688V27.9775ZM18.3027 21.5725C18.1383 21.5535 18.0659 21.5484 17.9529 21.5484C17.0647 21.5484 16.615 21.8515 16.615 22.4499C16.615 22.8187 16.8345 23.0535 17.1769 23.0535C17.8152 23.0535 18.2753 22.4487 18.3027 21.5725ZM19.4424 24.2122H18.1439L18.1737 23.5981C17.7777 24.0835 17.2492 24.3141 16.5312 24.3141C15.6818 24.3141 15.0994 23.6541 15.0994 22.6958C15.0994 21.2539 16.1124 20.4126 17.8511 20.4126C18.0287 20.4126 18.2565 20.4286 18.4897 20.4581C18.5384 20.2628 18.5511 20.1792 18.5511 20.0741C18.5511 19.6815 18.278 19.5351 17.5458 19.5351C16.7792 19.5264 16.1469 19.7167 15.8872 19.8018C15.9036 19.7034 16.1043 18.4691 16.1043 18.4691C16.8853 18.2415 17.4004 18.1558 17.9801 18.1558C19.3258 18.1558 20.0385 18.7567 20.0372 19.8927C20.0398 20.1971 19.9892 20.5727 19.9102 21.0664C19.7741 21.9249 19.4823 23.7639 19.4424 24.2122ZM14.4436 24.2122H12.8764L13.7742 18.6124L11.7697 24.2122H10.7017L10.5698 18.6444L9.62619 24.2122H8.15918L9.38461 16.9279H11.638L11.7747 21.0051L13.1492 16.9279H15.6557L14.4436 24.2122ZM42.991 21.5725C42.8272 21.5535 42.7544 21.5484 42.6418 21.5484C41.7539 21.5484 41.3041 21.8515 41.3041 22.4499C41.3041 22.8187 41.5233 23.0535 41.8657 23.0535C42.5041 23.0535 42.9645 22.4487 42.991 21.5725ZM44.1316 24.2122H42.8332L42.8626 23.5981C42.4665 24.0835 41.9377 24.3141 41.2204 24.3141C40.3707 24.3141 39.7889 23.6541 39.7889 22.6958C39.7889 21.2539 40.8012 20.4126 42.5402 20.4126C42.7178 20.4126 42.9453 20.4286 43.1783 20.4581C43.2269 20.2628 43.2396 20.1792 43.2396 20.0741C43.2396 19.6815 42.9669 19.5351 42.2347 19.5351C41.4681 19.5264 40.8364 19.7167 40.5757 19.8018C40.5922 19.7034 40.7935 18.4691 40.7935 18.4691C41.5746 18.2415 42.0893 18.1558 42.6683 18.1558C44.0146 18.1558 44.7273 18.7567 44.726 19.8927C44.7286 20.1971 44.678 20.5727 44.599 21.0664C44.4637 21.9249 44.1711 23.7639 44.1316 24.2122ZM26.4079 24.1222C25.979 24.2566 25.6446 24.3141 25.282 24.3141C24.4808 24.3141 24.0436 23.8561 24.0436 23.0127C24.0322 22.7511 24.1588 22.0624 24.2583 21.4338C24.3488 20.8804 24.9378 17.3914 24.9378 17.3914H26.4956L26.3137 18.2881H27.2546L27.0421 19.7118H26.0978C25.9169 20.8384 25.6592 22.2418 25.6562 22.4278C25.6562 22.7331 25.82 22.8664 26.1926 22.8664C26.3712 22.8664 26.5096 22.8483 26.6152 22.8104L26.4079 24.1222ZM31.1841 24.0742C30.649 24.2368 30.1326 24.3155 29.5854 24.3142C27.8417 24.3125 26.9326 23.4065 26.9326 21.6716C26.9326 19.6466 28.0891 18.1559 29.6589 18.1559C30.9432 18.1559 31.7635 18.9905 31.7635 20.2995C31.7635 20.7339 31.7072 21.1579 31.5715 21.7565H28.4693C28.3644 22.6159 28.9172 22.9739 29.8233 22.9739C30.381 22.9739 30.8839 22.8595 31.4431 22.6008L31.1841 24.0742ZM30.3086 20.5622C30.3172 20.4387 30.4738 19.5048 29.5838 19.5048C29.0875 19.5048 28.7327 19.8811 28.5882 20.5622H30.3086ZM20.3832 20.1608C20.3832 20.9102 20.7484 21.4268 21.5767 21.8149C22.2114 22.1116 22.3096 22.1996 22.3096 22.4685C22.3096 22.8379 22.0297 23.0045 21.4095 23.0045C20.9421 23.0045 20.5072 22.9319 20.0055 22.7709C20.0055 22.7709 19.7994 24.0765 19.79 24.139C20.1463 24.2163 20.4639 24.2879 21.4209 24.3142C23.0745 24.3142 23.8382 23.6879 23.8382 22.3342C23.8382 21.5202 23.5185 21.0425 22.7335 20.6835C22.0763 20.3835 22.0009 20.3165 22.0009 20.0399C22.0009 19.7195 22.2613 19.5562 22.768 19.5562C23.0756 19.5562 23.4958 19.5888 23.8938 19.6452L24.117 18.2712C23.7112 18.2072 23.096 18.1559 22.7378 18.1559C20.9847 18.1559 20.3778 19.0668 20.3832 20.1608ZM38.8065 18.3115C39.2418 18.3115 39.6476 18.4251 40.2069 18.7051L40.4632 17.1242C40.2336 17.0346 39.4254 16.5082 38.7409 16.5082C37.6921 16.5082 36.8055 17.0258 36.1819 17.8802C35.2724 17.5805 34.8985 18.1862 34.4401 18.7895L34.0331 18.8839C34.0639 18.6852 34.0918 18.4879 34.0823 18.2882H32.6432C32.4465 20.1215 32.098 21.9786 31.8252 23.8142L31.7541 24.2123H33.322C33.5837 22.5208 33.7271 21.4378 33.8142 20.7049L34.4047 20.3782C34.4928 20.0518 34.7689 19.9415 35.3227 19.9548C35.2483 20.3555 35.211 20.762 35.2115 21.1695C35.2115 23.1075 36.2627 24.3142 37.9498 24.3142C38.3844 24.3142 38.7574 24.2572 39.3347 24.1016L39.6106 22.4408C39.0911 22.6952 38.6648 22.8149 38.2788 22.8149C37.3678 22.8149 36.8165 22.1459 36.8165 21.0402C36.8165 19.4362 37.6364 18.3115 38.8065 18.3115Z" fill="black"/>
<path d="M14.8938 23.7792H13.3264L14.2247 18.1802L12.2202 23.7792H11.1521L11.02 18.2122L10.0765 23.7792H8.60938L9.83481 16.4958H12.0882L12.1515 21.0048L13.6718 16.4958H16.1059L14.8938 23.7792Z" fill="white"/>
<path d="M52.073 16.928L51.7257 19.0326C51.297 18.4717 50.8367 18.0657 50.2289 18.0657C49.438 18.0657 48.7183 18.662 48.2472 19.5397C47.5911 19.4043 46.9125 19.1746 46.9125 19.1746L46.9121 19.18C46.9651 18.6893 46.9861 18.39 46.9815 18.2883H45.542C45.346 20.1217 44.9975 21.9787 44.7251 23.8143L44.6533 24.2124H46.2209C46.4326 22.8446 46.5948 21.7089 46.7141 20.8083C47.2496 20.3269 47.5176 19.9069 48.0588 19.9349C47.8192 20.5114 47.6788 21.1753 47.6788 21.8563C47.6788 23.3373 48.4321 24.3143 49.5714 24.3143C50.1457 24.3143 50.5863 24.1173 51.0162 23.6607L50.9429 24.2114H52.4252L53.6188 16.928H52.073ZM50.1132 22.8433C49.5797 22.8433 49.3103 22.4506 49.3103 21.6756C49.3103 20.5113 49.8146 19.6856 50.5256 19.6856C51.064 19.6856 51.3556 20.0939 51.3556 20.8462C51.3556 22.0207 50.8434 22.8433 50.1132 22.8433Z" fill="black"/>
<path d="M18.7525 21.1407C18.5883 21.1219 18.5156 21.1167 18.403 21.1167C17.5147 21.1167 17.0653 21.4198 17.0653 22.0181C17.0653 22.3864 17.2849 22.6219 17.6266 22.6219C18.2656 22.6218 18.7257 22.0171 18.7525 21.1407ZM19.8928 23.7795H18.5943L18.6238 23.1664C18.2281 23.6507 17.699 23.8824 16.9816 23.8824C16.1318 23.8824 15.5498 23.2224 15.5498 22.2641C15.5498 20.8215 16.5624 19.9808 18.3014 19.9808C18.4791 19.9808 18.7069 19.9968 18.9398 20.0264C18.9884 19.8311 19.0011 19.7475 19.0011 19.6418C19.0011 19.2492 18.7284 19.1034 17.9962 19.1034C17.2292 19.0948 16.5973 19.2852 16.3372 19.3692C16.3536 19.2711 16.5543 18.0381 16.5543 18.0381C17.3351 17.8095 17.8508 17.7237 18.4298 17.7237C19.7759 17.7237 20.4889 18.3252 20.4876 19.4601C20.4899 19.7657 20.4389 20.1411 20.3602 20.6341C20.2245 21.4921 19.9323 23.3321 19.8928 23.7795ZM40.9129 16.6921L40.6562 18.2735C40.0972 17.9938 39.6911 17.8798 39.2563 17.8798C38.0861 17.8798 37.2659 19.0044 37.2659 20.6084C37.2659 21.714 37.8173 22.3828 38.7282 22.3828C39.1142 22.3828 39.5401 22.2635 40.0594 22.0087L39.7844 23.6687C39.2067 23.8254 38.8342 23.8824 38.3991 23.8824C36.7122 23.8824 35.6608 22.6757 35.6608 20.7377C35.6608 18.1337 37.1131 16.3137 39.1903 16.3137C39.8744 16.3138 40.683 16.6024 40.9129 16.6921ZM43.4414 21.1407C43.2773 21.1219 43.2049 21.1167 43.0919 21.1167C42.2039 21.1167 41.7542 21.4198 41.7542 22.0181C41.7542 22.3864 41.9737 22.6219 42.3159 22.6219C42.9541 22.6218 43.4145 22.0171 43.4414 21.1407ZM44.5817 23.7795H43.2829L43.3127 23.1664C42.9167 23.6507 42.3878 23.8824 41.6705 23.8824C40.821 23.8824 40.2387 23.2224 40.2387 22.2641C40.2387 20.8215 41.2516 19.9808 42.99 19.9808C43.168 19.9808 43.3955 19.9968 43.6286 20.0264C43.677 19.8311 43.69 19.7475 43.69 19.6418C43.69 19.2492 43.4172 19.1034 42.6851 19.1034C41.9184 19.0948 41.2861 19.2852 41.0261 19.3692C41.0425 19.2711 41.2435 18.0381 41.2435 18.0381C42.0243 17.8095 42.5396 17.7237 43.1186 17.7237C44.465 17.7237 45.1777 18.3252 45.176 19.4601C45.1787 19.7657 45.1281 20.1411 45.049 20.6341C44.9137 21.4921 44.6208 23.3321 44.5817 23.7795ZM26.858 23.6897C26.4287 23.8241 26.0943 23.8824 25.7321 23.8824C24.9309 23.8824 24.4937 23.4243 24.4937 22.5811C24.4826 22.3187 24.6092 21.6307 24.7088 21.0021C24.7989 20.448 25.388 16.9595 25.388 16.9595H26.9455L26.7638 17.8564H27.5634L27.3506 19.2795H26.5484C26.3674 20.4068 26.1091 21.809 26.1064 21.9954C26.1064 22.3018 26.2706 22.434 26.6429 22.434C26.8214 22.434 26.9596 22.4167 27.0654 22.3787L26.858 23.6897ZM31.6343 23.6424C31.0995 23.8051 30.5824 23.8835 30.0355 23.8824C28.2917 23.8807 27.3827 22.9747 27.3827 21.2398C27.3827 19.2141 28.5392 17.7238 30.109 17.7238C31.3933 17.7238 32.2135 18.5581 32.2135 19.8678C32.2135 20.3024 32.1573 20.7264 32.022 21.3247H28.9198C28.8148 22.184 29.3677 22.5424 30.2738 22.5424C30.8311 22.5424 31.3344 22.4277 31.8932 22.1683L31.6343 23.6424ZM30.7584 20.1295C30.7678 20.0064 30.9239 19.0721 30.0335 19.0721C29.5377 19.0721 29.1828 19.4495 29.0383 20.1295H30.7584ZM20.833 19.7292C20.833 20.4784 21.1982 20.9944 22.0266 21.3831C22.6611 21.6798 22.7593 21.7681 22.7593 22.0367C22.7593 22.4061 22.4792 22.5727 21.8597 22.5727C21.3919 22.5727 20.957 22.5001 20.455 22.3391C20.455 22.3391 20.2496 23.6447 20.2403 23.7071C20.5957 23.7845 20.9137 23.8551 21.8707 23.8824C23.5247 23.8824 24.288 23.2561 24.288 21.9027C24.288 21.0883 23.9687 20.6107 23.1832 20.2518C22.5264 19.9512 22.4504 19.8852 22.4504 19.6081C22.4504 19.2881 22.7114 19.1235 23.2177 19.1235C23.525 19.1235 23.9452 19.1571 24.3439 19.2135L24.5668 17.8391C24.1614 17.7751 23.5462 17.7238 23.1879 17.7238C21.4344 17.7238 20.828 18.6341 20.833 19.7292ZM52.8762 23.7795H51.3935L51.4672 23.228C51.0372 23.6854 50.5967 23.8824 50.0223 23.8824C48.8829 23.8824 48.13 22.9054 48.13 21.4244C48.13 19.454 49.2978 17.793 50.6801 17.793C51.2879 17.793 51.748 18.04 52.1762 18.6007L52.524 16.496H54.0697L52.8762 23.7795ZM50.5645 22.4107C51.2943 22.4107 51.807 21.5881 51.807 20.4145C51.807 19.6621 51.515 19.2538 50.9766 19.2538C50.2659 19.2538 49.761 20.0792 49.761 21.2438C49.7609 22.0187 50.031 22.4107 50.5645 22.4107ZM45.9932 17.8564C45.7971 19.6898 45.4485 21.5468 45.176 23.3815L45.1043 23.7795H46.6718C47.2324 20.1575 47.3681 19.4501 48.247 19.5388C48.3871 18.7975 48.6477 18.1481 48.8421 17.8204C48.1856 17.6844 47.819 18.0535 47.3392 18.7544C47.3771 18.4515 47.4465 18.1572 47.4327 17.8564H45.9932ZM33.0923 17.8564C32.8956 19.6898 32.547 21.5468 32.2747 23.3815L32.2033 23.7795H33.7715C34.3314 20.1575 34.4668 19.4501 35.3452 19.5388C35.486 18.7975 35.7467 18.1481 35.9403 17.8204C35.2846 17.6844 34.9177 18.0535 34.4383 18.7544C34.4761 18.4515 34.5448 18.1572 34.5317 17.8564H33.0923ZM53.5647 23.3158C53.5647 23.0587 53.7735 22.8518 54.0308 22.8518C54.2879 22.8515 54.4966 23.0587 54.4968 23.3146V23.3158C54.4968 23.5718 54.2882 23.7793 54.0308 23.7795C53.7735 23.7793 53.5649 23.5718 53.5647 23.3158ZM54.0308 23.6681C54.2264 23.6682 54.3849 23.5105 54.3849 23.316V23.3159C54.3851 23.1212 54.2266 22.9634 54.0311 22.9632H54.0308C53.835 22.9633 53.6763 23.1211 53.6762 23.3159C53.6765 23.5104 53.8352 23.6681 54.0308 23.6681ZM53.9678 23.5185H53.8722V23.1118H54.0454C54.0813 23.1118 54.1185 23.1124 54.1497 23.1321C54.1831 23.1547 54.2023 23.1935 54.2023 23.234C54.2023 23.28 54.1751 23.3231 54.1309 23.3394L54.2065 23.5183H54.1005L54.0377 23.3576H53.9678V23.5183V23.5185ZM53.9678 23.2881H54.0204C54.0401 23.2881 54.0616 23.2895 54.079 23.2801C54.0947 23.2701 54.1027 23.2512 54.1027 23.2331C54.102 23.2163 54.0935 23.2008 54.0796 23.1912C54.0632 23.1819 54.036 23.1844 54.0183 23.1844H53.9677V23.2881H53.9678Z" fill="white"/>
</g>
<defs>
<clipPath id="clip0">
<rect width="62.7273" height="40" fill="white"/>
</clipPath>
</defs>
</svg>
