<svg id="Layer_1" data-name="Layer 1" xmlns="http://www.w3.org/2000/svg" viewBox="0 0 107.15 107.15"><defs><style>.cls-1{fill:#fff;}.cls-2{fill:#ff00cf;}</style></defs><circle class="cls-1" cx="53.58" cy="53.58" r="53.58"/><path class="cls-2" d="M81.88,31.76h-1.8a44.46,44.46,0,0,0-8.69.86,17.55,17.55,0,0,0-34-.32,44.8,44.8,0,0,0-6.94-.56,30.89,30.89,0,0,0-3.38.12l-3.22.23V66.4A23.59,23.59,0,0,0,47.36,90H61.65A23.6,23.6,0,0,0,85.22,66.4V31.9ZM54.33,26.14a10.62,10.62,0,0,1,10.42,8.47,32.27,32.27,0,0,0-9.59,6,32.77,32.77,0,0,0-10.44-6.41q-.3-.09-.6-.21A10.62,10.62,0,0,1,54.33,26.14ZM30.76,66.4V38.62a39.15,39.15,0,0,1,6,.53v5.58a3.48,3.48,0,0,0,6.95,0V41.35A25.91,25.91,0,0,1,50.67,46a32.47,32.47,0,0,0-3.49,6.39,38.5,38.5,0,0,0-2.57,14.36,38.74,38.74,0,0,0,2.57,14.44c.23.63.53,1.23.83,1.86h-.65A16.64,16.64,0,0,1,30.76,66.4Zm47.51,0A16.65,16.65,0,0,1,61.65,83H55.88a24.61,24.61,0,0,1-2.31-4.4,32,32,0,0,1-2.09-11.9,31.75,31.75,0,0,1,2.09-11.81,24.57,24.57,0,0,1,5.72-8.73,23.85,23.85,0,0,1,5.67-4v2.62a3.47,3.47,0,1,0,6.94,0V39.59a35.22,35.22,0,0,1,6.37-.86Z" transform="translate(-1.17 -1.2)"/></svg>