<svg id="Layer_1" data-name="Layer 1" xmlns="http://www.w3.org/2000/svg" viewBox="0 0 343.26 46.28"><defs><style>.cls-1{fill:#fff;}.cls-2{fill:#ff00cf;}</style></defs><path class="cls-1" d="M259.85,38.29h4.69V7.08h0a4.34,4.34,0,0,0-4.69,4.69Z" transform="translate(-0.39 -0.9)"/><path class="cls-1" d="M286.32,16.81a12.22,12.22,0,0,0-12,0,10.56,10.56,0,0,0-3.93,4.24,13.44,13.44,0,0,0,0,11.74,10.57,10.57,0,0,0,3.93,4.27,12.29,12.29,0,0,0,12,0,10.64,10.64,0,0,0,3.9-4.27,12.79,12.79,0,0,0,1.35-5.86,12.78,12.78,0,0,0-1.35-5.88A10.63,10.63,0,0,0,286.32,16.81Zm-6,17.44a6.07,6.07,0,0,1-5.82-3.62,8.92,8.92,0,0,1-.78-3.7,8.68,8.68,0,0,1,.78-3.71,6.09,6.09,0,0,1,5.82-3.6,6,6,0,0,1,5.81,3.6,9.19,9.19,0,0,1,0,7.41,6,6,0,0,1-5.81,3.62Z" transform="translate(-0.39 -0.9)"/><path class="cls-1" d="M304.11,16a8.86,8.86,0,0,0-2.57,1.74,10.7,10.7,0,0,0-.8.89h0a3,3,0,0,0-3-3h-1.66V38.29h4.68V28.21a10.05,10.05,0,0,1,.85-4.09,7.59,7.59,0,0,1,2.4-3.06,5.82,5.82,0,0,1,3.64-1.15h1.13V15.23h-1A8.8,8.8,0,0,0,304.11,16Z" transform="translate(-0.39 -0.9)"/><path class="cls-1" d="M328.49,17.75a9.35,9.35,0,0,0-2-1.41,10.09,10.09,0,0,0-4.87-1.11,10.65,10.65,0,0,0-5.81,1.58A10.81,10.81,0,0,0,312,21.05a12.75,12.75,0,0,0-1.35,5.88A12.79,12.79,0,0,0,312,32.79a10.48,10.48,0,0,0,9.67,5.84,9.45,9.45,0,0,0,6.85-2.5v2.16h4.68V15.57h-2.51a2.17,2.17,0,0,0-2.17,2.18Zm-.61,5.47a9.19,9.19,0,0,1,0,7.41,6.32,6.32,0,0,1-2.23,2.64,6.25,6.25,0,0,1-3.59,1,6.45,6.45,0,0,1-3.62-1,6.38,6.38,0,0,1-2.32-2.64,8.35,8.35,0,0,1-.82-3.69,8.24,8.24,0,0,1,.82-3.7,6.31,6.31,0,0,1,5.94-3.61,6.32,6.32,0,0,1,3.59,1A6.42,6.42,0,0,1,327.88,23.22Z" transform="translate(-0.39 -0.9)"/><path class="cls-1" d="M339,11.77V38.29h4.68V7.08h0A4.34,4.34,0,0,0,339,11.77Z" transform="translate(-0.39 -0.9)"/><path class="cls-1" d="M247.67,8.66a7.09,7.09,0,0,0-2.38,5.79v1.12h-3.65v4.3h3.65V38.29H250V19.87h4.92v-4.3H250v-.86a3.36,3.36,0,0,1,.89-2.64,4.28,4.28,0,0,1,2.86-.81h1.17V6.74h-1A9.5,9.5,0,0,0,247.67,8.66Z" transform="translate(-0.39 -0.9)"/><path class="cls-1" d="M54.83,16.81a11.21,11.21,0,0,0-6-1.58,11.24,11.24,0,0,0-6,1.58,10.53,10.53,0,0,0-3.92,4.24,12.76,12.76,0,0,0-1.36,5.88A12.25,12.25,0,0,0,39,32.8a10.86,10.86,0,0,0,4,4.26,11.48,11.48,0,0,0,6,1.57,10.78,10.78,0,0,0,6.63-2,11.27,11.27,0,0,0,3.75-5l.39-1h-5l-.21.4a6.31,6.31,0,0,1-2.13,2.29,6.07,6.07,0,0,1-3.37.88,6.72,6.72,0,0,1-3.36-.82,6.23,6.23,0,0,1-2.3-2.2A8,8,0,0,1,42.45,29H60.08v-2a12.78,12.78,0,0,0-1.35-5.88A10.63,10.63,0,0,0,54.83,16.81Zm-12.3,7.67a7.17,7.17,0,0,1,1.9-3.25,5.89,5.89,0,0,1,4.38-1.61,6,6,0,0,1,4.4,1.61,7,7,0,0,1,1.89,3.25Z" transform="translate(-0.39 -0.9)"/><path class="cls-1" d="M72.32,16a9,9,0,0,0-2.57,1.74c-.29.3-.56.59-.8.89v-3H67a2.74,2.74,0,0,0-2.74,2.74v20H69V28.21a10.05,10.05,0,0,1,.85-4.09,7.59,7.59,0,0,1,2.4-3.06,5.82,5.82,0,0,1,3.64-1.15H77V15.23H76A8.83,8.83,0,0,0,72.32,16Z" transform="translate(-0.39 -0.9)"/><path class="cls-1" d="M86.77,20.6a6.79,6.79,0,0,1,3.68-1,5.65,5.65,0,0,1,3.4,1,5.8,5.8,0,0,1,2.05,2.64l.19.48h5l-.29-1a10.33,10.33,0,0,0-3.86-5.44A11.38,11.38,0,0,0,90,15.23a11,11,0,0,0-5.92,1.58,10.82,10.82,0,0,0-3.89,4.24,12.5,12.5,0,0,0-1.38,5.88,12.5,12.5,0,0,0,1.38,5.86,10.74,10.74,0,0,0,3.89,4.26A11,11,0,0,0,90,38.63a11.37,11.37,0,0,0,6.88-2.09,10.41,10.41,0,0,0,3.86-5.44l.29-1h-5l-.19.47a5.75,5.75,0,0,1-2.05,2.64,5.59,5.59,0,0,1-3.4,1,6.79,6.79,0,0,1-3.68-1,6.56,6.56,0,0,1-2.4-2.66,8.3,8.3,0,0,1,0-7.36A6.63,6.63,0,0,1,86.77,20.6Z" transform="translate(-0.39 -0.9)"/><path class="cls-1" d="M121.57,17.75a9,9,0,0,0-2-1.41,10.11,10.11,0,0,0-4.88-1.11,10.67,10.67,0,0,0-5.81,1.58,10.79,10.79,0,0,0-3.85,4.24,13.35,13.35,0,0,0,0,11.74,10.45,10.45,0,0,0,9.66,5.84,10.22,10.22,0,0,0,4.88-1.1,9.72,9.72,0,0,0,2-1.4v2.16h4.69V15.57h-2.51a2.18,2.18,0,0,0-2.18,2.18ZM121,23.22a9.19,9.19,0,0,1,0,7.41,6.23,6.23,0,0,1-2.22,2.64,6.29,6.29,0,0,1-3.59,1,6.32,6.32,0,0,1-6-3.63,8.48,8.48,0,0,1-.81-3.69,8.37,8.37,0,0,1,.81-3.7,6.43,6.43,0,0,1,2.33-2.63,6.53,6.53,0,0,1,3.62-1,6,6,0,0,1,5.81,3.6Z" transform="translate(-0.39 -0.9)"/><path class="cls-1" d="M148.61,17.75a9.55,9.55,0,0,0-2-1.41,10.16,10.16,0,0,0-4.88-1.11,10.48,10.48,0,0,0-9.66,5.82,12.76,12.76,0,0,0-1.36,5.88,12.92,12.92,0,0,0,1.35,5.86,10.48,10.48,0,0,0,9.67,5.84,9.45,9.45,0,0,0,6.85-2.5v2.16h4.68V7.08h0a4.34,4.34,0,0,0-4.68,4.69ZM148,23.22a9.19,9.19,0,0,1,0,7.41,6,6,0,0,1-5.81,3.62,6.47,6.47,0,0,1-3.63-1,6.38,6.38,0,0,1-2.32-2.64,8.49,8.49,0,0,1-.82-3.69,8.37,8.37,0,0,1,.82-3.7,6.31,6.31,0,0,1,5.95-3.61,6,6,0,0,1,5.81,3.6Z" transform="translate(-0.39 -0.9)"/><path class="cls-1" d="M179,21.05a10.65,10.65,0,0,0-3.91-4.24,12.2,12.2,0,0,0-12,0,10.56,10.56,0,0,0-3.93,4.24,12.75,12.75,0,0,0-1.35,5.88,12.79,12.79,0,0,0,1.35,5.86,10.57,10.57,0,0,0,3.93,4.27,12.27,12.27,0,0,0,12,0A10.6,10.6,0,0,0,179,32.79a13.44,13.44,0,0,0,0-11.74Zm-9.93,13.2a6.07,6.07,0,0,1-5.81-3.62,9.19,9.19,0,0,1,0-7.41,6.21,6.21,0,0,1,2.24-2.62,6.29,6.29,0,0,1,3.57-1,6.38,6.38,0,0,1,3.6,1,6.47,6.47,0,0,1,2.22,2.63,8.68,8.68,0,0,1,.78,3.71,8.92,8.92,0,0,1-.78,3.7,6.37,6.37,0,0,1-2.22,2.64A6.3,6.3,0,0,1,169.05,34.25Z" transform="translate(-0.39 -0.9)"/><path class="cls-1" d="M29,16.4a8.07,8.07,0,0,0-4.2-1.17,8.51,8.51,0,0,0-3.91.85,9,9,0,0,0-2.62,2c-.26.3-.51.58-.72.85a8.37,8.37,0,0,0-4.79-3.42,6.22,6.22,0,0,0-1.28-.21,8.17,8.17,0,0,0-5.34,1.27,13,13,0,0,0-1.1.91h0a1.86,1.86,0,0,0-1.86-1.86H.39V38.29H5.07V24.85a4.86,4.86,0,0,1,5-5.23A4.13,4.13,0,0,1,13.26,21a5.35,5.35,0,0,1,1.31,3.8V38.29h4.68V24.85a4.86,4.86,0,0,1,5-5.23A4.15,4.15,0,0,1,27.44,21a5.35,5.35,0,0,1,1.3,3.8V38.29h4.69V24.73a10,10,0,0,0-1.22-5A9,9,0,0,0,29,16.4Z" transform="translate(-0.39 -0.9)"/><circle class="cls-1" cx="211.2" cy="23.14" r="23.14"/><path class="cls-2" d="M223.31,14.1h-.78a18.78,18.78,0,0,0-3.75.37,7.58,7.58,0,0,0-14.69-.14,19.62,19.62,0,0,0-3-.24c-.5,0-1,0-1.46.05l-1.39.1V29.06A10.19,10.19,0,0,0,208.4,39.24h6.17a10.19,10.19,0,0,0,10.18-10.18V14.16Zm-11.9-2.43a4.59,4.59,0,0,1,4.5,3.66,13.89,13.89,0,0,0-4.14,2.6,14.17,14.17,0,0,0-4.51-2.77,2,2,0,0,1-.26-.09A4.59,4.59,0,0,1,211.41,11.67ZM201.23,29.06v-12a16.76,16.76,0,0,1,2.6.23v2.41a1.5,1.5,0,0,0,3,0V18.24a11.29,11.29,0,0,1,3,2A14.2,14.2,0,0,0,208.32,23a16.69,16.69,0,0,0-1.11,6.2,16.75,16.75,0,0,0,1.11,6.24c.1.27.23.53.36.8h-.28A7.18,7.18,0,0,1,201.23,29.06Zm20.52,0a7.19,7.19,0,0,1-7.18,7.18h-2.49a10.63,10.63,0,0,1-1-1.9,13.82,13.82,0,0,1-.9-5.14,13.75,13.75,0,0,1,.9-5.1,10.65,10.65,0,0,1,2.47-3.77A10.36,10.36,0,0,1,216,18.59v1.13a1.5,1.5,0,0,0,3,0V17.48a15,15,0,0,1,2.75-.37Z" transform="translate(-0.39 -0.9)"/></svg>