<svg width="63" height="40" viewBox="0 0 63 40" fill="none" xmlns="http://www.w3.org/2000/svg">
<g clip-path="url(#clip0)">
<path d="M3.202 0H59.237C61.0055 0 62.439 1.43272 62.439 3.2V36.8C62.439 38.5674 61.0055 40 59.237 40H3.202C1.43362 40 0 38.5674 0 36.8V3.2C0 1.43272 1.43362 0 3.202 0Z" fill="#0E4595"/>
<path d="M23.4709 27.8985L26.1414 12.2376H30.4129L27.7404 27.8985H23.4709ZM43.172 12.5752C42.3258 12.258 40.9996 11.9175 39.3438 11.9175C35.1232 11.9175 32.1501 14.0415 32.1249 17.0857C32.101 19.3361 34.2473 20.5915 35.8674 21.3406C37.5301 22.1082 38.0889 22.5977 38.0811 23.2833C38.0706 24.3329 36.7534 24.8125 35.5257 24.8125C33.8161 24.8125 32.9079 24.5752 31.5051 23.9905L30.9547 23.7417L30.3552 27.2475C31.3528 27.6846 33.1977 28.0633 35.1132 28.0829C39.6032 28.0829 42.5178 25.9833 42.5511 22.7324C42.567 20.9508 41.4291 19.5951 38.9648 18.4773C37.4718 17.7529 36.5575 17.2694 36.5672 16.5359C36.5672 15.8849 37.3411 15.1888 39.0133 15.1888C40.4101 15.1672 41.422 15.4716 42.2103 15.7888L42.593 15.9696L43.172 12.5752ZM54.1636 12.2374H50.863C49.8405 12.2374 49.0753 12.5164 48.6263 13.5361L42.2829 27.8881H46.7681C46.7681 27.8881 47.5014 25.9583 47.6673 25.5347C48.1576 25.5347 52.5147 25.5414 53.1377 25.5414C53.2655 26.0897 53.6572 27.8881 53.6572 27.8881H57.6208L54.1636 12.2369V12.2374ZM48.9269 22.3502C49.2801 21.4479 50.6288 17.9724 50.6288 17.9724C50.6035 18.0141 50.9793 17.0656 51.1951 16.4776L51.4836 17.828C51.4836 17.828 52.3017 21.5663 52.4726 22.3502H48.9269ZM19.8447 12.2374L15.6629 22.9174L15.2173 20.747C14.4388 18.2452 12.0133 15.5346 9.30176 14.1776L13.1254 27.8736L17.6447 27.8685L24.3693 12.2372H19.8447" fill="white"/>
<path d="M11.7605 12.2368H4.87287L4.81836 12.5626C10.1767 13.8589 13.7223 16.9916 15.1944 20.7554L13.6967 13.5586C13.4381 12.567 12.6883 12.2711 11.7606 12.2365" fill="#F2AE14"/>
</g>
<defs>
<clipPath id="clip0">
<rect width="62.439" height="40" fill="white"/>
</clipPath>
</defs>
</svg>
